<svg xmlns="http://www.w3.org/2000/svg" xmlns:xlink="http://www.w3.org/1999/xlink" width="450" zoomAndPan="magnify" viewBox="0 0 337.5 112.499997" height="150" preserveAspectRatio="xMidYMid meet" version="1.0"><defs><g/><clipPath id="484a254eee"><path d="M 0.496094 0 L 336.503906 0 L 336.503906 112.003906 L 0.496094 112.003906 Z M 0.496094 0 " clip-rule="nonzero"/></clipPath></defs><g clip-path="url(#484a254eee)"><path fill="#ffffff" d="M 0.496094 0 L 336.503906 0 L 336.503906 112.003906 L 0.496094 112.003906 Z M 0.496094 0 " fill-opacity="1" fill-rule="nonzero"/><path fill="#ffffff" d="M 0.496094 0 L 336.503906 0 L 336.503906 112.003906 L 0.496094 112.003906 Z M 0.496094 0 " fill-opacity="1" fill-rule="nonzero"/></g><g fill="#3a3a35" fill-opacity="1"><g transform="translate(9.792419, 68.274612)"><g><path d="M 57.890625 -23.71875 C 58.628906 -22.976562 58.914062 -22.25 58.75 -21.53125 C 58.582031 -20.820312 58.210938 -20.097656 57.640625 -19.359375 C 55.179688 -16.210938 52.566406 -13.15625 49.796875 -10.1875 C 47.023438 -7.21875 43.957031 -4.660156 40.59375 -2.515625 C 37.226562 -0.378906 33.460938 1 29.296875 1.625 C 26.378906 2.03125 23.503906 1.816406 20.671875 0.984375 C 17.847656 0.160156 15.320312 -1.191406 13.09375 -3.078125 C 10.875 -4.960938 9.191406 -7.273438 8.046875 -10.015625 C 6.566406 -8.304688 5.082031 -6.566406 3.59375 -4.796875 C 2.113281 -3.023438 0.71875 -1.3125 -0.59375 0.34375 C -1.457031 1.375 -2.472656 1.957031 -3.640625 2.09375 C -4.804688 2.238281 -5.773438 1.953125 -6.546875 1.234375 C -7.316406 0.523438 -7.5625 -0.539062 -7.28125 -1.96875 C -2.375 -23.550781 4.421875 -44.503906 13.109375 -64.828125 C 13.554688 -65.679688 14.25 -66.222656 15.1875 -66.453125 C 16.132812 -66.679688 17.039062 -66.566406 17.90625 -66.109375 C 18.695312 -65.597656 19.222656 -64.867188 19.484375 -63.921875 C 19.742188 -62.984375 19.644531 -62.113281 19.1875 -61.3125 C 12.84375 -46.300781 7.5625 -30.945312 3.34375 -15.25 C 9.789062 -22.550781 16.8125 -29.316406 24.40625 -35.546875 C 25.09375 -36.222656 25.921875 -36.5625 26.890625 -36.5625 C 27.859375 -36.5625 28.710938 -36.222656 29.453125 -35.546875 C 30.085938 -34.859375 30.40625 -34.023438 30.40625 -33.046875 C 30.40625 -32.078125 30.085938 -31.253906 29.453125 -30.578125 C 23.921875 -26.066406 18.695312 -21.269531 13.78125 -16.1875 C 13.894531 -13.5 14.820312 -11.253906 16.5625 -9.453125 C 18.3125 -7.660156 20.457031 -6.421875 23 -5.734375 C 25.539062 -5.046875 28.035156 -5.046875 30.484375 -5.734375 C 33.679688 -6.648438 36.609375 -8.035156 39.265625 -9.890625 C 41.921875 -11.742188 44.359375 -13.882812 46.578125 -16.3125 C 48.804688 -18.738281 50.921875 -21.207031 52.921875 -23.71875 C 53.609375 -24.40625 54.4375 -24.75 55.40625 -24.75 C 56.375 -24.75 57.203125 -24.40625 57.890625 -23.71875 Z M 57.890625 -23.71875 "/></g></g></g><g fill="#3a3a35" fill-opacity="1"><g transform="translate(64.855277, 68.274612)"><g><path d="M 48.296875 -23.46875 C 49.160156 -23.695312 49.972656 -23.582031 50.734375 -23.125 C 51.503906 -22.664062 52.003906 -21.976562 52.234375 -21.0625 C 52.460938 -20.207031 52.347656 -19.394531 51.890625 -18.625 C 51.441406 -17.851562 50.757812 -17.351562 49.84375 -17.125 C 40.3125 -14.675781 31.0625 -11.335938 22.09375 -7.109375 C 20.664062 -2.878906 19.335938 1.398438 18.109375 5.734375 C 16.878906 10.078125 15.460938 14.332031 13.859375 18.5 C 12.265625 22.664062 10.15625 26.546875 7.53125 30.140625 C 4.28125 34.535156 1.03125 37.734375 -2.21875 39.734375 C -5.476562 41.734375 -8.503906 42.75 -11.296875 42.78125 C -14.097656 42.8125 -16.46875 42.023438 -18.40625 40.421875 C -20.351562 38.828125 -21.695312 36.628906 -22.4375 33.828125 C -23.175781 31.023438 -23.101562 27.796875 -22.21875 24.140625 C -21.332031 20.492188 -19.429688 16.613281 -16.515625 12.5 C -13.609375 8.394531 -9.472656 4.242188 -4.109375 0.046875 C 1.253906 -4.148438 8.019531 -8.160156 16.1875 -11.984375 C 16.757812 -13.929688 17.300781 -15.875 17.8125 -17.8125 C 16.84375 -16.332031 15.597656 -14.789062 14.078125 -13.1875 C 12.566406 -11.59375 10.941406 -10.28125 9.203125 -9.25 C 7.460938 -8.21875 5.707031 -7.773438 3.9375 -7.921875 C 2.164062 -8.066406 0.507812 -9.109375 -1.03125 -11.046875 C -2.394531 -12.929688 -3.175781 -14.914062 -3.375 -17 C -3.582031 -19.082031 -3.382812 -21.207031 -2.78125 -23.375 C -2.1875 -25.550781 -1.414062 -27.679688 -0.46875 -29.765625 C 0.46875 -31.847656 1.367188 -33.800781 2.234375 -35.625 C 2.742188 -36.707031 3.425781 -37.320312 4.28125 -37.46875 C 5.132812 -37.613281 5.972656 -37.441406 6.796875 -36.953125 C 7.628906 -36.460938 8.21875 -35.789062 8.5625 -34.9375 C 8.90625 -34.082031 8.820312 -33.140625 8.3125 -32.109375 C 8.132812 -31.710938 7.773438 -30.828125 7.234375 -29.453125 C 6.691406 -28.085938 6.132812 -26.546875 5.5625 -24.828125 C 4.988281 -23.117188 4.515625 -21.453125 4.140625 -19.828125 C 3.773438 -18.203125 3.648438 -16.898438 3.765625 -15.921875 C 3.878906 -14.953125 4.363281 -14.582031 5.21875 -14.8125 C 5.738281 -15.039062 6.195312 -15.328125 6.59375 -15.671875 C 8.707031 -17.210938 10.578125 -19.050781 12.203125 -21.1875 C 13.828125 -23.332031 15.320312 -25.5625 16.6875 -27.875 C 18.0625 -30.1875 19.492188 -32.457031 20.984375 -34.6875 C 21.554688 -35.488281 22.3125 -35.988281 23.25 -36.1875 C 24.195312 -36.382812 25.097656 -36.253906 25.953125 -35.796875 C 26.691406 -35.453125 27.359375 -34.9375 27.953125 -34.25 C 28.554688 -33.570312 28.742188 -32.6875 28.515625 -31.59375 C 27.941406 -28.96875 27.328125 -26.359375 26.671875 -23.765625 C 26.015625 -21.171875 25.347656 -18.554688 24.671875 -15.921875 C 32.367188 -19.066406 40.242188 -21.582031 48.296875 -23.46875 Z M 11.640625 2.390625 C 12.210938 0.796875 12.757812 -0.851562 13.28125 -2.5625 C 6.25 1.195312 0.59375 4.945312 -3.6875 8.6875 C -7.96875 12.425781 -11.101562 15.96875 -13.09375 19.3125 C -15.09375 22.65625 -16.191406 25.582031 -16.390625 28.09375 C -16.597656 30.601562 -16.101562 32.5 -14.90625 33.78125 C -13.707031 35.070312 -12.050781 35.546875 -9.9375 35.203125 C -7.820312 34.859375 -5.492188 33.53125 -2.953125 31.21875 C -0.410156 28.90625 2.140625 25.40625 4.703125 20.71875 C 7.273438 16.039062 9.585938 9.929688 11.640625 2.390625 Z M 11.640625 2.390625 "/></g></g></g><g fill="#3a3a35" fill-opacity="1"><g transform="translate(113.495562, 68.274612)"><g><path d="M 31.515625 -36.390625 C 32.660156 -36.390625 33.515625 -36.03125 34.078125 -35.3125 C 34.648438 -34.601562 34.9375 -33.789062 34.9375 -32.875 C 34.9375 -31.96875 34.648438 -31.15625 34.078125 -30.4375 C 33.515625 -29.726562 32.660156 -29.347656 31.515625 -29.296875 C 27.859375 -29.296875 24.332031 -28.59375 20.9375 -27.1875 C 17.539062 -25.789062 14.441406 -23.90625 11.640625 -21.53125 C 8.847656 -19.164062 6.46875 -16.441406 4.5 -13.359375 C 2.53125 -10.273438 1.171875 -6.992188 0.421875 -3.515625 C 0.304688 -3.171875 0.207031 -2.738281 0.125 -2.21875 C 0.0390625 -1.707031 -0.0234375 -1.28125 -0.078125 -0.9375 C -0.304688 0.03125 -0.847656 0.742188 -1.703125 1.203125 C -2.566406 1.660156 -3.457031 1.773438 -4.375 1.546875 C -5.394531 1.253906 -6.078125 0.75 -6.421875 0.03125 C -6.765625 -0.675781 -6.90625 -1.484375 -6.84375 -2.390625 C -6.789062 -3.304688 -6.679688 -4.164062 -6.515625 -4.96875 C -5.484375 -10.050781 -4.296875 -15.117188 -2.953125 -20.171875 C -1.609375 -25.222656 0.226562 -30.03125 2.5625 -34.59375 C 3.082031 -35.457031 3.796875 -36.015625 4.703125 -36.265625 C 5.617188 -36.523438 6.503906 -36.398438 7.359375 -35.890625 C 8.335938 -35.253906 8.878906 -34.519531 8.984375 -33.6875 C 9.097656 -32.863281 8.96875 -31.976562 8.59375 -31.03125 C 8.226562 -30.09375 7.800781 -29.179688 7.3125 -28.296875 C 6.832031 -27.421875 6.476562 -26.550781 6.25 -25.6875 C 9.675781 -29 13.554688 -31.566406 17.890625 -33.390625 C 22.234375 -35.222656 26.773438 -36.222656 31.515625 -36.390625 Z M 31.515625 -36.390625 "/></g></g></g><g fill="#3a3a35" fill-opacity="1"><g transform="translate(154.514392, 68.274612)"><g><path d="M 63.203125 -24.0625 C 64.003906 -23.550781 64.460938 -22.835938 64.578125 -21.921875 C 64.742188 -21.003906 64.539062 -20.175781 63.96875 -19.4375 C 60.207031 -14.8125 56.070312 -10.503906 51.5625 -6.515625 C 49.789062 -4.910156 47.816406 -3.453125 45.640625 -2.140625 C 43.472656 -0.828125 41.257812 0.15625 39 0.8125 C 36.75 1.46875 34.609375 1.640625 32.578125 1.328125 C 30.554688 1.015625 28.785156 0.0703125 27.265625 -1.5 C 25.753906 -3.070312 24.660156 -5.425781 23.984375 -8.5625 C 20.785156 -4.96875 17.671875 -2.425781 14.640625 -0.9375 C 11.617188 0.539062 8.847656 1.148438 6.328125 0.890625 C 3.816406 0.640625 1.691406 -0.28125 -0.046875 -1.875 C -1.785156 -3.476562 -2.992188 -5.59375 -3.671875 -8.21875 C -4.359375 -10.84375 -4.390625 -13.8125 -3.765625 -17.125 C -3.140625 -20.4375 -1.742188 -23.921875 0.421875 -27.578125 C 2.304688 -30.597656 4.660156 -32.894531 7.484375 -34.46875 C 10.316406 -36.039062 13.300781 -36.867188 16.4375 -36.953125 C 19.582031 -37.035156 22.566406 -36.320312 25.390625 -34.8125 C 28.210938 -33.300781 30.539062 -31.003906 32.375 -27.921875 C 33.457031 -27.515625 34.351562 -26.828125 35.0625 -25.859375 C 35.78125 -24.890625 35.769531 -23.75 35.03125 -22.4375 C 33.945312 -20.613281 32.90625 -18.628906 31.90625 -16.484375 C 30.90625 -14.347656 30.578125 -12.164062 30.921875 -9.9375 C 31.367188 -7.875 32.117188 -6.515625 33.171875 -5.859375 C 34.234375 -5.203125 35.476562 -5.015625 36.90625 -5.296875 C 38.332031 -5.585938 39.785156 -6.175781 41.265625 -7.0625 C 42.753906 -7.945312 44.15625 -8.914062 45.46875 -9.96875 C 46.78125 -11.03125 47.894531 -11.960938 48.8125 -12.765625 C 52.238281 -15.847656 55.410156 -19.1875 58.328125 -22.78125 C 58.835938 -23.582031 59.5625 -24.109375 60.5 -24.359375 C 61.445312 -24.617188 62.347656 -24.519531 63.203125 -24.0625 Z M 17.90625 -12.421875 C 21.382812 -15.671875 24.378906 -19.320312 26.890625 -23.375 C 25.578125 -25.832031 23.960938 -27.570312 22.046875 -28.59375 C 20.140625 -29.625 18.113281 -30.023438 15.96875 -29.796875 C 13.832031 -29.566406 11.820312 -28.78125 9.9375 -27.4375 C 8.050781 -26.101562 6.507812 -24.265625 5.3125 -21.921875 C 4.570312 -20.554688 3.925781 -18.914062 3.375 -17 C 2.832031 -15.082031 2.617188 -13.210938 2.734375 -11.390625 C 2.847656 -9.566406 3.59375 -8.050781 4.96875 -6.84375 C 6 -5.988281 7.082031 -5.675781 8.21875 -5.90625 C 9.363281 -6.132812 10.519531 -6.632812 11.6875 -7.40625 C 12.863281 -8.175781 13.976562 -9.046875 15.03125 -10.015625 C 16.082031 -10.984375 17.039062 -11.785156 17.90625 -12.421875 Z M 17.90625 -12.421875 "/></g></g></g><g fill="#3a3a35" fill-opacity="1"><g transform="translate(215.400391, 68.274612)"><g/></g></g><g fill="#3a3a35" fill-opacity="1"><g transform="translate(251.709333, 68.274612)"><g><path d="M 54.046875 -23.46875 C 54.554688 -22.550781 54.695312 -21.609375 54.46875 -20.640625 C 54.238281 -19.671875 53.722656 -18.867188 52.921875 -18.234375 C 49.722656 -16.066406 46.351562 -13.8125 42.8125 -11.46875 C 39.28125 -9.132812 35.628906 -6.96875 31.859375 -4.96875 C 28.085938 -2.96875 24.234375 -1.351562 20.296875 -0.125 C 16.359375 1.101562 12.421875 1.6875 8.484375 1.625 C 5.222656 1.625 2.617188 0.957031 0.671875 -0.375 C -1.265625 -1.71875 -2.613281 -3.503906 -3.375 -5.734375 C -4.144531 -7.960938 -4.429688 -10.429688 -4.234375 -13.140625 C -4.035156 -15.859375 -3.421875 -18.597656 -2.390625 -21.359375 C -1.367188 -24.128906 -0.03125 -26.726562 1.625 -29.15625 C 3.28125 -31.582031 5.164062 -33.640625 7.28125 -35.328125 C 9.394531 -37.015625 11.617188 -38.113281 13.953125 -38.625 C 16.359375 -39.132812 18.828125 -38.929688 21.359375 -38.015625 C 23.898438 -37.109375 25.742188 -35.484375 26.890625 -33.140625 C 27.804688 -30.910156 27.847656 -28.96875 27.015625 -27.3125 C 26.191406 -25.65625 24.835938 -24.226562 22.953125 -23.03125 C 21.066406 -21.832031 18.9375 -20.875 16.5625 -20.15625 C 14.195312 -19.445312 11.875 -18.9375 9.59375 -18.625 C 7.3125 -18.3125 5.398438 -18.15625 3.859375 -18.15625 C 2.878906 -15.070312 2.546875 -12.613281 2.859375 -10.78125 C 3.179688 -8.957031 3.96875 -7.644531 5.21875 -6.84375 C 6.476562 -6.050781 8.019531 -5.625 9.84375 -5.5625 C 11.675781 -5.507812 13.644531 -5.753906 15.75 -6.296875 C 17.863281 -6.835938 19.945312 -7.519531 22 -8.34375 C 24.0625 -9.175781 25.890625 -10.050781 27.484375 -10.96875 C 34.960938 -14.90625 42.1875 -19.242188 49.15625 -23.984375 C 49.957031 -24.546875 50.859375 -24.785156 51.859375 -24.703125 C 52.859375 -24.617188 53.585938 -24.207031 54.046875 -23.46875 Z M 17.640625 -31.765625 C 15.585938 -32.109375 13.675781 -31.59375 11.90625 -30.21875 C 10.132812 -28.851562 8.617188 -27.226562 7.359375 -25.34375 C 9.703125 -25.6875 12.046875 -26.1875 14.390625 -26.84375 C 16.734375 -27.5 18.785156 -28.597656 20.546875 -30.140625 C 19.804688 -31.109375 18.835938 -31.648438 17.640625 -31.765625 Z M 17.640625 -31.765625 "/></g></g></g><g fill="#3a3a35" fill-opacity="1"><g transform="translate(302.490478, 68.274612)"><g><path d="M 7.703125 -5.3125 C 8.847656 -5.3125 9.707031 -4.953125 10.28125 -4.234375 C 10.851562 -3.523438 11.140625 -2.710938 11.140625 -1.796875 C 11.140625 -0.878906 10.851562 -0.0664062 10.28125 0.640625 C 9.707031 1.359375 8.847656 1.71875 7.703125 1.71875 C 6.566406 1.71875 5.710938 1.359375 5.140625 0.640625 C 4.566406 -0.0664062 4.28125 -0.878906 4.28125 -1.796875 C 4.28125 -2.710938 4.566406 -3.523438 5.140625 -4.234375 C 5.710938 -4.953125 6.566406 -5.3125 7.703125 -5.3125 Z M 7.703125 -5.3125 "/></g></g></g></svg>